<svg id="b7f70688-d09c-4178-831f-c148476861c0" data-name="WCFLabs" xmlns="http://www.w3.org/2000/svg" viewBox="0 0 587 108"><defs><style>.a9b5096f-e7dd-4177-a551-8d7f9e9aa241{fill:#1e1e1e;opacity:0;}.b31c9060-12c0-4934-9e3c-f1e4c2693892{fill:#a7a9ac;}.a87a34a0-cfaa-4922-b82d-99b74768bb6e{fill:#f15a29;}</style></defs><title>WCFLabs</title><rect class="a9b5096f-e7dd-4177-a551-8d7f9e9aa241" width="587" height="108"/><path class="b31c9060-12c0-4934-9e3c-f1e4c2693892" d="M415.23,87.82H374.36l-7.76,18.3H352.36l35.78-81.06h14l35.43,81.06H423ZM410,75.67l-15.28-36-15.29,36Z"/><path class="b31c9060-12c0-4934-9e3c-f1e4c2693892" d="M510.78,45.33c0,9-5.44,15.86-14.24,18.06,10.89,1.85,17.37,9.61,17.37,20.5,0,13.89-11.23,22.23-29.53,22.23h-36V25.06h35.2C500.36,25.06,510.78,32.71,510.78,45.33Zm-14,2.43c0-6.72-5.22-10.54-13.9-10.42H462v21.3h20.85C491.56,58.64,496.78,54.71,496.78,47.76Zm3.12,34.39c0-7.18-6.37-11.58-17-11.46H462V93.85h20.85C493.53,94,499.9,89.68,499.9,82.15Z"/><path class="b31c9060-12c0-4934-9e3c-f1e4c2693892" d="M555.74,37.34c-8,0-13.21,3-13.21,8.45,0,17.72,43.78,8.22,43.66,37.4,0,14.48-12.74,23.4-30.57,23.4A49.88,49.88,0,0,1,522.5,93.73l5.91-11.81c8.33,7.64,18.75,11.81,27.44,11.81,9.49,0,15.17-3.59,15.17-9.84,0-18.06-43.77-8-43.77-36.83,0-13.89,11.92-22.58,29.53-22.58a52.81,52.81,0,0,1,28.37,8.34l-5.68,12C570.67,39.54,561.87,37.34,555.74,37.34Z"/><path class="b31c9060-12c0-4934-9e3c-f1e4c2693892" d="M349.42,98.78c0-.11,0-.21,0-.32s-.05-.28-.07-.42l-.11-.41c0-.09-.05-.18-.08-.27L349,96.9v0h0c-.08-.19-.16-.39-.25-.57h0L344,87.1h-9.57l3.23,6.34H295.89l23-45,0-.05L320.59,45V34.89h-.13l.13-.25V23h0c2.24-.59,3.66-1.47,3.66-2.46s-1.79-2.08-4.5-2.65c.59.3.93.67.93,1.06,0,1.14-2.95,2.07-6.59,2.07s-6.58-.93-6.58-2.07c0-.39.34-.76.93-1.06-2.71.57-4.5,1.55-4.5,2.65s1.39,1.85,3.58,2.44V41.43L279.56,96.3h0a7.19,7.19,0,0,0-.78,3.26c0,3.62,2.6,6.55,5.8,6.55h59.1c3.2,0,5.79-2.93,5.79-6.55A7,7,0,0,0,349.42,98.78Z"/><path class="a87a34a0-cfaa-4922-b82d-99b74768bb6e" d="M319.5,12.88a3.41,3.41,0,1,1-3.4-3.4A3.41,3.41,0,0,1,319.5,12.88Z"/><path class="a87a34a0-cfaa-4922-b82d-99b74768bb6e" d="M311.16,7.61a3.41,3.41,0,1,1-3.4-3.41A3.4,3.4,0,0,1,311.16,7.61Z"/><path class="a87a34a0-cfaa-4922-b82d-99b74768bb6e" d="M318.21,3a2,2,0,1,1-2-2A2,2,0,0,1,318.21,3Z"/><path class="a87a34a0-cfaa-4922-b82d-99b74768bb6e" d="M330.61,89.06l-2.69-6.68c-7.39,1.71-15-11.64-18.66-5.65l-6.35,12.42h27.75Z"/><path class="a87a34a0-cfaa-4922-b82d-99b74768bb6e" d="M20.52,25.07l17,61.21L54.49,25.07h18L89.62,86.28l16.93-61.21h18.78l-26.9,81.15H79.54L63.19,48.37l-16.7,57.85H27.59L.81,25.07Z"/><path class="a87a34a0-cfaa-4922-b82d-99b74768bb6e" d="M169.65,40.37C155.74,40.37,145,51.15,145,65.29s10.78,25,24.69,25c7.31,0,15.31-3.71,21.1-9.51l10.79,11.71c-8.58,8.81-21,14.49-32.82,14.49-24.23,0-42.55-18-42.55-41.5s18.67-41,43.25-41a46.2,46.2,0,0,1,32,13.45l-10.67,13C185.19,44.54,177.19,40.37,169.65,40.37Z"/><path class="a87a34a0-cfaa-4922-b82d-99b74768bb6e" d="M270.77,25.07l-.11,15.18H230.77V60.19h36.64V75.5H230.77v30.72H212.45V25.07Z"/></svg>
